<?xml version="1.0" encoding="UTF-8"?>
<svg width="100px" height="100px" viewBox="0 0 100 100" version="1.1" xmlns="http://www.w3.org/2000/svg" xmlns:xlink="http://www.w3.org/1999/xlink">
    <!-- Generator: Sketch 47.1 (45422) - http://www.bohemiancoding.com/sketch -->
    <title>Email</title>
    <desc>Created with Sketch.</desc>
    <defs></defs>
    <g id="Page-1" stroke="none" stroke-width="1" fill="none" fill-rule="evenodd">
        <g id="Artboard" transform="translate(-360.000000, -750.000000)" fill-rule="nonzero">
            <g id="Email" transform="translate(360.000000, 750.000000)">
                <circle id="Oval" fill="#A497EA" cx="50" cy="50" r="50"></circle>
                <path d="M35,46.1165279 L21,39 L48.3577434,20.1325908 C49.2647367,19.5070782 50.731362,19.5043876 51.6422566,20.1325908 L79,39 L65,46.3706897 L65,34.9982138 C65,33.8943377 64.1083227,33 63.008383,33 L36.991617,33 C35.8978404,33 35,33.8946308 35,34.9982138 L35,46.1165279 Z" id="Shape" fill="#3F51B5"></path>
                <path d="M21,39 L48.7293198,53.0954628 C49.7120841,53.5950249 51.3005269,53.5831586 52.2802611,53.0673502 L79,39 L79,71.0000796 C79,72.1046051 78.1121679,73 77.0035087,73 L22.9964913,73 C21.8938596,73 21,72.1080589 21,71.0000796 L21,39 Z" id="Shape" fill="#FAF9FF"></path>
            </g>
        </g>
    </g>
</svg>