<?xml version="1.0" encoding="UTF-8"?>
<svg width="100px" height="100px" viewBox="0 0 100 100" version="1.1" xmlns="http://www.w3.org/2000/svg" xmlns:xlink="http://www.w3.org/1999/xlink">
    <!-- Generator: Sketch 47.1 (45422) - http://www.bohemiancoding.com/sketch -->
    <title>Network</title>
    <desc>Created with Sketch.</desc>
    <defs></defs>
    <g id="Page-1" stroke="none" stroke-width="1" fill="none" fill-rule="evenodd">
        <g id="Artboard" transform="translate(-230.000000, -1660.000000)" fill-rule="nonzero">
            <g id="Network" transform="translate(230.000000, 1660.000000)">
                <circle id="Oval" fill="#A497EA" cx="50" cy="50" r="50"></circle>
                <path d="M50.1184049,53.2952705 L32.7966558,64.3182017 C32.9295182,64.8569386 33,65.4202383 33,66 C33,69.8659932 29.8659932,73 26,73 C22.1340068,73 19,69.8659932 19,66 C19,62.1340068 22.1340068,59 26,59 C27.8399745,59 29.5141413,59.7099068 30.7635429,60.8707627 L46.6051629,50.7897318 L31.0222024,37.9168514 C29.8405053,38.6055019 28.4663226,39 27,39 C22.581722,39 19,35.418278 19,31 C19,26.581722 22.581722,23 27,23 C31.418278,23 35,26.581722 35,31 C35,32.4935466 34.5907173,33.8915001 33.878191,35.0878215 L49.1838442,47.7316219 L60.2492508,28.8553401 C58.8611685,27.4941997 58,25.5976682 58,23.5 C58,19.3578644 61.3578644,16 65.5,16 C69.6421356,16 73,19.3578644 73,23.5 C73,27.6421356 69.6421356,31 65.5,31 C64.8971078,31 64.3108305,30.9288633 63.7491038,30.7945256 L52.4865094,50.0071867 L71.2820154,59.4049397 C72.7342959,57.9209537 74.7595978,57 77,57 C81.418278,57 85,60.581722 85,65 C85,69.418278 81.418278,73 77,73 C72.581722,73 69,69.418278 69,65 C69,64.2654267 69.0990048,63.5539771 69.2843985,62.8782672 L50.1184049,53.2952705 Z M50,83 C46.6862915,83 44,80.3137085 44,77 C44,73.6862915 46.6862915,71 50,71 C53.3137085,71 56,73.6862915 56,77 C56,80.3137085 53.3137085,83 50,83 Z" id="Shape" fill="#FAF9FF"></path>
                <circle id="Oval" fill="#3F51B5" cx="49.5" cy="51.5" r="12.5"></circle>
            </g>
        </g>
    </g>
</svg>