<?xml version="1.0" encoding="UTF-8"?>
<svg width="100px" height="100px" viewBox="0 0 100 100" version="1.1" xmlns="http://www.w3.org/2000/svg" xmlns:xlink="http://www.w3.org/1999/xlink">
    <!-- Generator: Sketch 47.1 (45422) - http://www.bohemiancoding.com/sketch -->
    <title>Target</title>
    <desc>Created with Sketch.</desc>
    <defs></defs>
    <g id="Page-1" stroke="none" stroke-width="1" fill="none" fill-rule="evenodd">
        <g id="Artboard" transform="translate(-1270.000000, -1010.000000)" fill-rule="nonzero">
            <g id="Target" transform="translate(1270.000000, 1010.000000)">
                <circle id="Oval" fill="#A497EA" cx="50" cy="50" r="50"></circle>
                <path d="M50,82 C32.326888,82 18,67.673112 18,50 C18,32.326888 32.326888,18 50,18 C67.673112,18 82,32.326888 82,50 C82,67.673112 67.673112,82 50,82 Z M50,71 C61.5979797,71 71,61.5979797 71,50 C71,38.4020203 61.5979797,29 50,29 C38.4020203,29 29,38.4020203 29,50 C29,61.5979797 38.4020203,71 50,71 Z M50,62 C43.372583,62 38,56.627417 38,50 C38,43.372583 43.372583,38 50,38 C56.627417,38 62,43.372583 62,50 C62,56.627417 56.627417,62 50,62 Z" id="Shape" fill="#FAF9FF"></path>
                <path d="M62.28851,41.7947512 L53.4366965,50.6465646 C52.2642026,51.8190585 50.3615771,51.8174212 49.1923882,50.6482323 C48.0208153,49.4766594 48.0209331,47.5770466 49.1940558,46.4039239 L58.4298728,37.1681069 L57.7213848,33.7630376 C57.4957832,32.6787722 57.9502553,31.1624431 58.7217285,30.3909698 L70.7371318,18.3755666 C71.515208,17.5974904 72.3292817,17.8477829 72.5544511,18.9299713 L74.094551,26.3318559 L81.4964356,27.8719557 C82.580701,28.0975573 82.8223135,28.9178019 82.0508403,29.6892751 L70.035437,41.7046783 C69.2573608,42.4827545 67.7455577,42.9301915 66.6633693,42.7050221 L62.28851,41.7947512 Z" id="Shape" fill="#3F51B5"></path>
            </g>
        </g>
    </g>
</svg>