<svg xmlns="http://www.w3.org/2000/svg" width="100" height="100" viewBox="0 0 100 100">
  <g fill="none">
    <circle cx="50" cy="50" r="50" fill="#B7EB81"/>
    <path fill="#00BB74" d="M45.994118,58.5648736 C46.62924,57.6578254 47.8712936,57.4316983 48.7824122,58.0696704 C49.6872225,58.7032254 49.9062032,59.9516241 49.2707261,60.8591794 L37.8048719,77.2341162 C37.1697499,78.1411645 35.9276962,78.3672915 35.0165777,77.7293195 C34.1117673,77.0957644 33.8927867,75.8473657 34.5282637,74.9398105 L45.994118,58.5648736 Z M50.5282637,60.8591794 C49.8931417,59.9521311 50.1054592,58.7076425 51.0165777,58.0696704 C51.9213881,57.4361154 53.1693949,57.6573184 53.8048719,58.5648736 L65.2707261,74.9398105 C65.9058481,75.8468587 65.6935307,77.0913474 64.7824122,77.7293195 C63.8776018,78.3628745 62.629595,78.1416715 61.994118,77.2341162 L50.5282637,60.8591794 Z"/>
    <path fill="#FFF" d="M22,32 L78,32 L78,61.9997876 C78,64.2090439 76.200205,66 73.9950917,66 L26.0049083,66 C23.7930585,66 22,64.2079681 22,61.9997876 L22,32 Z"/>
    <path fill="#00BB74" d="M22 28C22 25.790861 23.799795 24 26.0049083 24L73.9950917 24C76.2069415 24 78 25.7953562 78 28L78 32 22 32 22 28zM51.638645 54.2487921C52.4372165 54.8689585 53.5504314 54.754491 54.2204719 53.983313L63.4897304 44.4320842C64.2142024 43.5982588 64.1608115 42.3026898 63.3704784 41.5383499 62.5801453 40.7740099 61.3521531 40.830339 60.6276812 41.6641644L52.536357 49.8596588 46.6719878 45.3054212C45.8992767 44.7053378 44.8269442 44.7908377 44.1484913 45.5066261L36.5685886 53.5036536C35.8104705 54.3034912 35.8104705 55.6002842 36.5685886 56.4001218 37.3267066 57.1999594 38.5558589 57.1999594 39.313977 56.4001218L45.7140866 49.6478119 51.638645 54.2487921z"/>
  </g>
</svg>
