<svg xmlns="http://www.w3.org/2000/svg" width="100" height="100" viewBox="0 0 100 100">
  <g fill="none">
    <circle cx="50" cy="50" r="50" fill="#B7EB81"/>
    <path fill="#00BB74" d="M56,30 L72.2850252,23.4859899 C74.3367491,22.6653004 76,23.7940525 76,26.0098932 L76,65.9901068 C76,68.2047097 74.3292112,69.3316845 72.2850252,68.5140101 L56,62 L56,30 Z M45.000249,78.000249 C42.2388253,78.000249 39.4566284,75.8257664 38.7892621,73.1563014 L36.000249,62.000249 L48.000249,62.000249 L49.3811332,73.0473225 C49.7230615,75.7827483 47.7560539,78.000249 45.000249,78.000249 Z"/>
    <path fill="#FFF" d="M19,46 C19,37.163444 26.1558963,30 35.0001043,30 L56,30 L56,62 L35.0001043,62 C26.1634907,62 19,54.8384989 19,46 L19,46 Z"/>
  </g>
</svg>
