<svg xmlns="http://www.w3.org/2000/svg" width="100" height="100" viewBox="0 0 100 100">
  <g fill="none">
    <circle cx="50" cy="50" r="50" fill="#B7EB81"/>
    <path fill="#FFF" d="M53,41 L53,33.9976599 C53,32.3524401 51.6568542,31 50,31 C48.3465171,31 47,32.342098 47,33.9976599 L47,41 L33.6626783,41 C28.8351531,41 25,45.0659 25,50.0002441 L25,75.9997559 L31,75.9997559 L31,50.0002441 C31,48.3037652 32.2297743,47 33.6626783,47 L47,47 L47,66.0023401 C47,67.6475599 48.3431458,69 50,69 C51.6534829,69 53,67.657902 53,66.0023401 L53,47 L66.3373217,47 C67.7674575,47 69,48.3061414 69,50.0002441 L69,75.9997559 L75,75.9997559 L75,50.0002441 C75,45.0677409 71.1614696,41 66.3373217,41 L53,41 Z"/>
    <path fill="#00BB74" d="M50,34 C45.0294373,34 41,29.9705627 41,25 C41,20.0294373 45.0294373,16 50,16 C54.9705627,16 59,20.0294373 59,25 C59,29.9705627 54.9705627,34 50,34 Z M50,77 C46.1340068,77 43,73.8659932 43,70 C43,66.1340068 46.1340068,63 50,63 C53.8659932,63 57,66.1340068 57,70 C57,73.8659932 53.8659932,77 50,77 Z M28,77 C24.1340068,77 21,73.8659932 21,70 C21,66.1340068 24.1340068,63 28,63 C31.8659932,63 35,66.1340068 35,70 C35,73.8659932 31.8659932,77 28,77 Z M72,77 C68.1340068,77 65,73.8659932 65,70 C65,66.1340068 68.1340068,63 72,63 C75.8659932,63 79,66.1340068 79,70 C79,73.8659932 75.8659932,77 72,77 Z"/>
  </g>
</svg>
