<svg xmlns="http://www.w3.org/2000/svg" width="100" height="100" viewBox="0 0 100 100">
  <g fill="none">
    <circle cx="50" cy="50" r="50" fill="#B7EB81"/>
    <path fill="#00BB74" d="M50 85C54.1728181 85 58 73.2867532 58 71 58 68.8132468 54.6172626 67 50 67 46.2716263 67 42 68.8132468 42 71 42 73.2867532 45.8271819 85 50 85zM27 69.272079C27 66.7849184 28.1906636 63.1410881 29.6579633 61.1353494L38.7420367 48.717793C40.2099893 46.7111619 41.4 47.1015735 41.4 49.5871385L41.4 68.3186355C41.4 70.8053929 39.3977417 73.0701267 36.9423661 73.3752538L28.7946543 74.3877618C27.8034941 74.5109323 27 73.8053609 27 72.8055879L27 69.272079zM73 69.2433437C73 66.7720532 71.8154687 63.1494706 70.350432 61.1468255L61.249568 48.7063169C59.786252 46.7060238 58.6 47.0792312 58.6 49.556273L58.6 68.349501C58.6 70.8192118 60.6022583 73.0701267 63.0576339 73.3752538L71.2053457 74.3877618C72.1965059 74.5109323 73 73.8053609 73 72.8284507L73 69.2433437z"/>
    <path fill="#FFF" d="M36.5042192,33.7779504 C36.9958091,28.3452908 41.1595343,21.5912594 45.8708678,18.8328114 C45.8708678,18.8328114 48.1987326,17 49.9994677,17 C51.8002029,17 54.1280676,18.8328114 54.1280676,18.8328114 C58.8095349,21.6541242 63.0648418,28.3540488 63.5008856,33.7963953 C63.5008856,33.7963953 64.1815396,36.6662728 63.9551654,49.5371098 C63.7287912,62.4079467 62.0874513,72.4827322 62.0874513,72.4827322 C61.8758131,73.9464178 60.5845464,74.6555449 59.2017013,74.1488986 C59.2017013,74.1488986 56.3020409,72.5300007 49.9994677,72.5300007 C43.6968946,72.5300007 40.7972342,74.1488986 40.7972342,74.1488986 C39.4151167,74.6923859 38.1170122,73.93765 37.9110815,72.4598391 C37.9110815,72.4598391 36.2677159,62.269879 36.04377,49.5371098 C35.8198242,36.8043406 36.5042192,33.7779504 36.5042192,33.7779504 Z"/>
    <path fill="#00BB74" d="M50,43 C46.1340068,43 43,39.8659932 43,36 C43,32.1340068 46.1340068,29 50,29 C53.8659932,29 57,32.1340068 57,36 C57,39.8659932 53.8659932,43 50,43 Z M52,54.0008642 L52,72.9991358 C52,74.1041826 51.1122704,75 50,75 C48.8954305,75 48,74.0983727 48,72.9991358 L48,54.0008642 C48,52.8958174 48.8877296,52 50,52 C51.1045695,52 52,52.9016273 52,54.0008642 Z"/>
  </g>
</svg>
