<svg xmlns="http://www.w3.org/2000/svg" width="100" height="100" viewBox="0 0 100 100">
  <g fill="none">
    <circle cx="50" cy="50" r="50" fill="#B7EB81"/>
    <path fill="#FFF" d="M20,31.0017284 C20,28.7916349 21.7956808,27 24.0065556,27 L75.9934444,27 C78.206204,27 80,28.7891365 80,31.0017284 L80,68.9982716 C80,71.2083651 78.2043192,73 75.9934444,73 L24.0065556,73 C21.793796,73 20,71.2108635 20,68.9982716 L20,31.0017284 Z M43,33 C43,34.1122704 43.8980535,35 45.0058587,35 L54.9941413,35 C56.1029399,35 57,34.1045695 57,33 C57,31.8877296 56.1019465,31 54.9941413,31 L45.0058587,31 C43.8970601,31 43,31.8954305 43,33 Z"/>
    <path fill="#00BB74" d="M37.5,54.4761905 C34.6005051,54.4761905 32.25,52.1310154 32.25,49.2380952 C32.25,46.3451751 34.6005051,44 37.5,44 C40.3994949,44 42.75,46.3451751 42.75,49.2380952 C42.75,52.1310154 40.3994949,54.4761905 37.5,54.4761905 Z M37.5,56.5714286 C43.29894,56.5714286 48,59.2692553 48,62.5969499 L48,63.9224023 C48,65.0701016 47.072767,66 45.9289672,66 L29.0710328,66 C27.9294402,66 27,65.0698278 27,63.9224023 L27,62.5969499 C27,59.2692553 31.70106,56.5714286 37.5,56.5714286 Z M53,50.5 C53,49.1192881 54.1259806,48 55.5028229,48 L68.4971771,48 C69.879448,48 71,49.1096621 71,50.5 C71,51.8807119 69.8740194,53 68.4971771,53 L55.5028229,53 C54.120552,53 53,51.8903379 53,50.5 Z M53,59.5 C53,58.1192881 54.1274379,57 55.4937831,57 L65.5062169,57 C66.8834953,57 68,58.1096621 68,59.5 C68,60.8807119 66.8725621,62 65.5062169,62 L55.4937831,62 C54.1165047,62 53,60.8903379 53,59.5 Z"/>
  </g>
</svg>
