<svg xmlns="http://www.w3.org/2000/svg" width="100" height="100" viewBox="0 0 100 100">
  <g fill="none">
    <circle cx="50" cy="50" r="50" fill="#B7EB81"/>
    <path fill="#FFF" d="M47.7759693,56.7421396 L32.1339252,41.1000955 L26.1411605,39.7932325 L21.1844838,30.1506541 L25.8703854,25.4647525 L35.5129639,30.4214291 L36.8198268,36.4141938 L52.4618709,52.0562379 L53.2619146,51.2562242 C54.9766977,49.5414412 57.7644887,49.5490196 59.4773391,51.2618699 L73.5909457,65.3754766 C75.3088468,67.0933777 75.3044336,69.8830589 73.5965915,71.590901 L67.3106324,77.8768601 C65.5958494,79.5916432 62.8080584,79.5840647 61.095208,77.8712144 L46.9816013,63.7576077 C45.2637002,62.0397066 45.2681134,59.2500254 46.9759555,57.5421833 L47.7759843,56.7421546 L47.7759693,56.7421396 Z"/>
    <path fill="#00BB74" d="M48.5316998,44.6630345 C45.6465499,38.5189599 46.7466853,30.963661 51.829325,25.8810213 C56.8985435,20.8118029 64.4273796,19.704084 70.5626365,22.5606239 L61.3332698,30.7213619 C59.9632496,31.9327533 59.1478426,34.3631957 59.5051627,36.1559591 L59.9859535,38.5682061 C60.2246885,39.7659991 61.380933,40.9165767 62.5716485,41.1539011 L64.9838956,41.634692 C66.7784819,41.9923754 69.209811,41.1735406 70.4184928,39.8065849 L78.5792308,30.5772182 C81.4357707,36.712475 80.3280518,44.2413112 75.2588333,49.3105296 C70.1762022,54.3931608 62.6209203,55.4933011 56.4768513,52.6081693 C56.3192014,52.821218 56.147099,53.0266291 55.9605319,53.2230011 L35.1385777,75.1392379 C32.6811654,77.7257978 28.6439377,77.7775177 26.1266787,75.2602586 L25.879596,75.013176 C23.359874,72.493454 23.418377,68.4545847 26.0006167,66.0012769 L47.9168536,45.1793227 C48.1132613,44.9927216 48.3186767,44.8206348 48.5316998,44.6630345 Z"/>
  </g>
</svg>
