<svg xmlns="http://www.w3.org/2000/svg" width="100" height="100" viewBox="0 0 100 100">
  <g fill="none">
    <circle cx="50" cy="50" r="50" fill="#B7EB81"/>
    <path fill="#FFF" d="M30,45 C25.581722,45 22,41.418278 22,37 C22,32.581722 25.581722,29 30,29 C34.418278,29 38,32.581722 38,37 C38,41.418278 34.418278,45 30,45 Z M30,47 C38.83648,47 46,51.3773141 46,56.7766097 L46,60.9966238 C46,62.1083399 45.103789,63 43.9982567,63 L16.0017433,63 C14.8892617,63 14,62.1030579 14,60.9966238 L14,56.7766097 C14,51.3773141 21.16352,47 30,47 Z M70,45 C65.581722,45 62,41.418278 62,37 C62,32.581722 65.581722,29 70,29 C74.418278,29 78,32.581722 78,37 C78,41.418278 74.418278,45 70,45 Z M70,47 C78.83648,47 86,51.3773141 86,56.7766097 L86,60.9966238 C86,62.1083399 85.103789,63 83.9982567,63 L56.0017433,63 C54.8892617,63 54,62.1030579 54,60.9966238 L54,56.7766097 C54,51.3773141 61.16352,47 70,47 Z"/>
    <path fill="#00BB74" d="M50,50 C43.9248678,50 39,45.0751322 39,39 C39,32.9248678 43.9248678,28 50,28 C56.0751322,28 61,32.9248678 61,39 C61,45.0751322 56.0751322,50 50,50 Z M50,53 C62.15016,53 72,58.7226628 72,65.7814089 L72,71.0083796 C72,72.1003559 71.1023652,73 69.9950767,73 L30.0049233,73 C28.8988551,73 28,72.1083212 28,71.0083796 L28,65.7814089 C28,58.7226628 37.84984,53 50,53 Z"/>
  </g>
</svg>
